<svg xmlns="http://www.w3.org/2000/svg" width="50" height="50"
     viewBox="0 0 50 50" fill="none">
    <rect x="0" y="0" width="0" height="0" fill="rgba(249, 249, 249, 1)"/>
    <g clip-path="url(#clip-path-0_1)">
        <path fill="#FFFFFF" d="M0 50L50 50L50 0L0 0L0 50Z">
        </path>
        <path d="M24.5273 4.00522L24.5143 4.0052C23.5349 4.04078 22.6215 4.21361 21.7741 4.5237C20.815 4.87466 20.0743 5.3593 19.5518 5.97761C19.5462 5.98422 19.5412 5.99125 19.5368 5.99865L19.5364 5.99886C19.5355 6.00034 19.5321 6.00646 19.5291 6.0128C19.1053 6.90379 19.0334 7.56719 19.3134 8.00302C19.4298 8.18422 19.6134 8.33972 19.864 8.46951C20.0068 8.54351 20.2425 8.63816 20.5709 8.75344C21.0529 8.92263 21.3921 9.07684 21.5885 9.21609C21.9048 9.44041 22.1007 9.7443 22.176 10.1278C22.3447 10.9876 22.0589 11.6078 21.3186 11.9884C21.0781 12.112 20.8037 12.2038 20.4954 12.2635C20.3431 12.293 20.2156 12.3103 20.113 12.3154L8.65777 12.3154C8.56926 12.3154 8.49752 12.3882 8.49752 12.4781L8.49752 23.9404C8.45469 24.4157 8.32239 24.8261 8.10063 25.1715C7.71365 25.7744 7.11061 25.9975 6.29151 25.8409C5.90076 25.7663 5.59154 25.5728 5.36384 25.2604C5.2231 25.0673 5.06715 24.7336 4.89599 24.2593C4.77898 23.9351 4.68287 23.7024 4.60767 23.5612C4.47583 23.3136 4.31818 23.1326 4.13469 23.0181C3.6965 22.7445 3.02792 22.8159 2.12894 23.2322C2.12134 23.2356 2.11403 23.2398 2.10706 23.2444L2.10678 23.2446C2.10533 23.2455 2.09982 23.2494 2.09456 23.2538C1.56135 23.6925 1.12429 24.2907 0.783394 25.0485C0.478951 25.7254 0.272679 26.4767 0.164578 27.3024C0.163835 27.3081 0.162355 27.3177 0.160136 27.3312C0.157673 27.3462 0.155776 27.3585 0.154443 27.3683C0.0315679 27.9494 -0.0179874 28.5584 0.0057768 29.1951C0.0418841 30.163 0.217292 31.0656 0.532 31.903C0.88808 32.8504 1.3796 33.582 2.00655 34.0978C2.01306 34.1032 2.01995 34.108 2.02718 34.1123L2.02737 34.1124C2.02883 34.1134 2.03479 34.1167 2.04094 34.1194C2.93991 34.5357 3.60851 34.6068 4.04673 34.3327C4.23019 34.218 4.38783 34.0367 4.51964 33.7888C4.59485 33.6475 4.69094 33.4146 4.80793 33.09C4.97911 32.6153 5.13508 32.2813 5.27582 32.088C5.50353 31.7753 5.81275 31.5816 6.20351 31.507C7.07978 31.3395 7.71113 31.6216 8.09758 32.3533C8.22247 32.5899 8.31508 32.8598 8.37543 33.1629C8.40524 33.3127 8.42269 33.4379 8.42779 33.5386L8.49741 44.8383C8.49795 44.9282 8.57029 45.0006 8.65889 45L20.1582 44.9095L20.1621 44.9094L20.1643 44.9094C20.2828 44.9037 20.4265 44.8845 20.5956 44.8518C20.9336 44.7864 21.2363 44.6849 21.5037 44.5474C21.8876 44.3501 22.1706 44.0911 22.3528 43.7705C22.5806 43.3695 22.6399 42.8903 22.5305 42.3329C22.4384 41.864 22.1991 41.4925 21.8127 41.2183C21.5922 41.0616 21.2271 40.8938 20.7175 40.7149C20.4034 40.6044 20.1816 40.5157 20.0521 40.4485C19.8526 40.3451 19.7102 40.2269 19.6251 40.0942C19.4132 39.7637 19.4891 39.2131 19.8526 38.4423C20.3379 37.8748 21.0286 37.4269 21.9249 37.0986C22.7399 36.8 23.6203 36.6335 24.566 36.5993C25.1873 36.5766 25.7804 36.6237 26.3454 36.7407C26.3482 36.7411 26.351 36.7418 26.3539 36.7421L26.354 36.7421L26.3593 36.7429C26.3655 36.7436 26.3762 36.7451 26.3914 36.7475C26.4085 36.7503 26.4216 36.7523 26.4309 36.7535C27.2368 36.8561 27.9686 37.0513 28.6264 37.3391C29.3418 37.652 29.905 38.0486 30.3158 38.529C30.6793 39.2997 30.7549 39.8503 30.5426 40.1809C30.4574 40.3135 30.3148 40.4317 30.1149 40.5352C29.9852 40.6024 29.7631 40.6911 29.4487 40.8014C28.9387 40.9805 28.5732 41.1483 28.3524 41.3048C27.9657 41.5791 27.7262 41.9508 27.6341 42.4198C27.5247 42.9771 27.584 43.4563 27.8119 43.8574C27.994 44.1779 28.277 44.4368 28.6609 44.6343C28.9283 44.7717 29.231 44.8731 29.5691 44.9387C29.7381 44.9714 29.8818 44.9906 30.0003 44.9961L30.0077 44.9963L41.4007 45C41.4893 45.0002 41.5611 44.9273 41.5611 44.8373L41.5611 33.0468C41.672 32.5564 41.8597 32.1729 42.1241 31.8962C42.5084 31.4942 43.0365 31.3574 43.7085 31.4858C44.0993 31.5605 44.4084 31.7541 44.6361 32.0668C44.7769 32.26 44.9329 32.594 45.1041 33.0689C45.221 33.3934 45.3171 33.6263 45.3923 33.7677C45.5242 34.0155 45.6818 34.1968 45.8653 34.3116C46.3035 34.5857 46.9721 34.5146 47.871 34.0983C47.8787 34.0947 47.8859 34.0906 47.893 34.0859L47.8931 34.0859C47.8946 34.0849 47.9002 34.081 47.9055 34.0766C48.4385 33.6381 48.8756 33.0392 49.2167 32.28C49.5211 31.6024 49.7273 30.8505 49.8354 30.0243C49.8361 30.0194 49.8375 30.011 49.8396 29.9991C49.8422 29.9846 49.8441 29.9723 49.8455 29.9623C49.9684 29.3811 50.018 28.772 49.9942 28.1352C49.9581 27.1673 49.7827 26.2647 49.468 25.4275C49.1119 24.48 48.6204 23.7484 47.9935 23.2327C47.987 23.2273 47.9802 23.2224 47.9728 23.2182L47.9726 23.218C47.9712 23.2171 47.9653 23.2138 47.959 23.211C47.0601 22.7947 46.3915 22.7236 45.9532 22.9977C45.7698 23.1125 45.6122 23.2937 45.4803 23.5415C45.4051 23.6829 45.309 23.9159 45.192 24.2404C45.0209 24.7152 44.865 25.0492 44.7242 25.2425C44.4965 25.5552 44.1872 25.7488 43.7965 25.8235C42.9205 25.9909 42.2892 25.709 41.9026 24.9776C41.7777 24.7412 41.6851 24.4713 41.6247 24.1682C41.5948 24.0184 41.5773 23.8931 41.5722 23.7924L41.5611 12.4785C41.5611 12.3887 41.4893 12.316 41.4009 12.316L29.4429 12.316C28.9522 12.2016 28.5709 12.0129 28.2989 11.7498C27.9111 11.3746 27.7808 10.863 27.908 10.2151C27.9832 9.83162 28.1789 9.52773 28.495 9.30341C28.6912 9.16419 29.03 9.00999 29.5114 8.84081C29.8395 8.72552 30.0749 8.63086 30.2178 8.55686C30.4681 8.42705 30.6514 8.27152 30.7676 8.09029C31.047 7.65451 30.9748 6.99112 30.5509 6.10012C30.5473 6.0923 30.5429 6.08478 30.5381 6.07767L30.538 6.07738C30.537 6.07591 30.5328 6.07028 30.5283 6.06493C30.084 5.539 29.4782 5.10803 28.7109 4.77201C28.026 4.47204 27.2656 4.26879 26.4298 4.16228C26.4239 4.16153 26.4141 4.16004 26.4002 4.15782C26.3849 4.15538 26.3724 4.1535 26.3627 4.15221C25.7786 4.03195 25.1668 3.98295 24.5273 4.00522ZM24.5127 4.33087C23.5716 4.36629 22.6949 4.53261 21.8827 4.82982C20.9851 5.1583 20.2937 5.60619 19.8085 6.1735C19.4451 6.94417 19.3695 7.49475 19.5818 7.82525C19.667 7.958 19.8096 8.07613 20.0095 8.17964C20.1392 8.24679 20.3613 8.33555 20.6757 8.44591C21.1857 8.62498 21.5512 8.79278 21.772 8.94932C22.1587 9.22356 22.3982 9.59517 22.4903 10.0642C22.5997 10.6215 22.5404 11.1007 22.3125 11.5018C22.1304 11.8223 21.8474 12.0813 21.4635 12.2787C21.1961 12.4162 20.8934 12.5176 20.5555 12.5831C20.3864 12.6159 20.2426 12.6351 20.1243 12.6406L20.1167 12.6408L8.81803 12.6408L8.81803 23.9477L8.81779 23.9567L8.81777 23.9567L8.81739 23.9622C8.77051 24.4944 8.62109 24.9568 8.36914 25.3494C7.90412 26.0737 7.19181 26.3442 6.23221 26.1607C5.7591 26.0703 5.38376 25.8347 5.10619 25.454C4.94717 25.2358 4.77678 24.8748 4.59504 24.3712C4.48335 24.0618 4.39357 23.8434 4.32572 23.716C4.22113 23.5196 4.10148 23.3793 3.96679 23.2952C3.62828 23.0839 3.06622 23.1587 2.28062 23.5197C1.79348 23.9251 1.39159 24.4798 1.07494 25.1837C0.783744 25.8311 0.586195 26.5516 0.482295 27.3453C0.481084 27.3546 0.479078 27.3677 0.476278 27.3847C0.473829 27.3997 0.47223 27.4102 0.471481 27.4163C0.471119 27.4192 0.47068 27.4221 0.470161 27.4251L0.470159 27.4251L0.470151 27.4252L0.469106 27.4304C0.350907 27.9869 0.303224 28.571 0.326058 29.1829C0.360832 30.115 0.529297 30.983 0.831453 31.787C1.16403 32.6719 1.61774 33.3535 2.19261 33.8319L2.19261 33.8319C2.9781 34.1928 3.54011 34.2674 3.87862 34.0556C4.01334 33.9714 4.13301 33.8309 4.23763 33.6343C4.30549 33.5066 4.39526 33.2879 4.50695 32.9781C4.6887 32.4741 4.85909 32.1129 5.0181 31.8945C5.29566 31.5134 5.67104 31.2776 6.14422 31.1871C6.7059 31.0797 7.18878 31.1378 7.59286 31.3614C7.91735 31.5409 8.17974 31.8203 8.38005 32.1996C8.51982 32.4644 8.623 32.764 8.68958 33.0985C8.72292 33.266 8.74241 33.4085 8.74808 33.5261L8.74827 33.5329L8.81691 44.6733L20.1526 44.5841C20.2553 44.579 20.383 44.5617 20.5356 44.5322C20.844 44.4725 21.1184 44.3808 21.3589 44.2571C22.0991 43.8765 22.3849 43.2563 22.2161 42.3965C22.1409 42.0131 21.9452 41.7092 21.629 41.4849C21.4329 41.3456 21.0941 41.1915 20.6127 41.0224C20.2846 40.907 20.0491 40.8123 19.9063 40.7383C19.656 40.6085 19.4727 40.453 19.3565 40.2718C19.0771 39.836 19.1493 39.1726 19.5731 38.2816C19.5768 38.2738 19.5811 38.2663 19.586 38.2591L19.5861 38.2589C19.5871 38.2573 19.5912 38.2518 19.5957 38.2464C20.1183 37.6279 20.8584 37.1433 21.8161 36.7925C22.6626 36.4823 23.5755 36.3095 24.5545 36.274C25.1989 36.2506 25.8151 36.2994 26.4031 36.4205C26.4131 36.4218 26.4258 36.4237 26.4412 36.4262C26.4548 36.4283 26.4644 36.4298 26.4702 36.4305C27.3066 36.5371 28.0676 36.7403 28.7532 37.0402C29.5219 37.3764 30.1284 37.8074 30.5726 38.3331C30.5782 38.3398 30.5833 38.3468 30.5878 38.3543L30.588 38.3544C30.5889 38.3559 30.5923 38.3621 30.5953 38.3684C31.0192 39.2594 31.0911 39.9227 30.811 40.3586C30.6947 40.5398 30.5112 40.6953 30.2606 40.825C30.1176 40.8991 29.8819 40.9938 29.5535 41.1091C29.0716 41.2782 28.7324 41.4324 28.5359 41.5716C28.2195 41.7959 28.0238 42.0999 27.9486 42.4834C27.7798 43.3431 28.0655 43.9632 28.8058 44.3438C29.0463 44.4675 29.3207 44.5592 29.6292 44.619C29.7814 44.6485 29.9089 44.6658 30.0115 44.6709L41.2406 44.6746L41.2406 33.0284C41.2406 33.0211 41.2411 33.0136 41.2421 33.0062L41.2421 33.0061C41.2422 33.0046 41.2432 32.9986 41.2445 32.9927C41.3681 32.4345 41.5846 31.9935 41.8941 31.6697C42.3583 31.1839 42.9829 31.016 43.7677 31.166C44.2409 31.2564 44.6163 31.4922 44.894 31.8734C45.0529 32.0917 45.2233 32.4529 45.405 32.957C45.5168 33.2667 45.6066 33.4854 45.6744 33.6131C45.779 33.8098 45.8987 33.9502 46.0334 34.0345C46.3719 34.2462 46.934 34.1717 47.7194 33.8108C48.2064 33.4056 48.6082 32.8503 48.925 32.1449C49.2162 31.4967 49.4137 30.7756 49.5176 29.9815C49.519 29.9714 49.5212 29.9581 49.5241 29.9415C49.5264 29.9286 49.5279 29.9194 49.5285 29.914C49.5289 29.9111 49.5293 29.9082 49.5298 29.9052L49.5298 29.9052L49.5309 29.9C49.6491 29.3435 49.6968 28.7593 49.6739 28.1474C49.6392 27.2153 49.4707 26.3473 49.1686 25.5435C48.836 24.6585 48.3823 23.9768 47.8074 23.4984C47.0219 23.1376 46.4599 23.063 46.1214 23.2747C45.9866 23.3589 45.867 23.4994 45.7624 23.6962C45.6945 23.8238 45.6047 24.0424 45.493 24.3522C45.3113 24.8563 45.1409 25.2176 44.9819 25.4359C44.7044 25.8171 44.329 26.0529 43.8558 26.1433C43.2943 26.2506 42.8115 26.1926 42.4074 25.9692C42.083 25.7898 41.8206 25.5106 41.6203 25.1314C41.4804 24.8668 41.3772 24.5672 41.3105 24.2326C41.2772 24.0649 41.2576 23.9222 41.2518 23.8044L41.2517 23.7966L41.2408 12.6414L29.425 12.6414C29.4176 12.6414 29.4102 12.6409 29.403 12.6399L29.4029 12.6399C29.4014 12.6397 29.3955 12.6387 29.3897 12.6374C28.833 12.5103 28.3957 12.293 28.0777 11.9853C27.6049 11.5278 27.4435 10.9165 27.5936 10.1515C27.6857 9.68256 27.9249 9.31097 28.3114 9.03672C28.532 8.88017 28.8971 8.71237 29.4066 8.53331C29.7207 8.42295 29.9425 8.3342 30.0719 8.26706C30.2715 8.16358 30.4139 8.04548 30.499 7.91275C30.7109 7.58224 30.635 7.0316 30.2715 6.26083C29.8605 5.78016 29.298 5.38348 28.584 5.0708C27.9269 4.78303 27.1956 4.58781 26.3899 4.48514C26.3807 4.48397 26.3675 4.482 26.3503 4.47925C26.3351 4.47681 26.3243 4.47522 26.318 4.47446C26.3152 4.47413 26.3125 4.47373 26.3096 4.47325L26.3096 4.47325L26.3096 4.47325L26.3047 4.4723C25.7397 4.35545 25.1466 4.30831 24.5253 4.33088L24.5127 4.33087Z"
              fill-rule="evenodd" fill="#000000">
        </path>
        <path d="M25.0693 16C27.3609 16 29.2187 17.7458 29.2187 19.8995C29.2187 19.9385 29.2181 19.9775 29.2169 20.0165C29.2156 20.0554 29.2137 20.0944 29.2113 20.1333C29.2088 20.1722 29.2057 20.2111 29.202 20.2499C29.1983 20.2888 29.194 20.3275 29.189 20.3662C29.1841 20.4049 29.1785 20.4435 29.1724 20.482C29.1662 20.5205 29.1594 20.5589 29.1521 20.5972C29.1447 20.6355 29.1367 20.6737 29.1281 20.7117C29.1195 20.7498 29.1104 20.7877 29.1006 20.8254C29.0908 20.8632 29.0804 20.9008 29.0694 20.9382C29.0585 20.9756 29.0469 21.0129 29.0348 21.0499C29.0226 21.087 29.0099 21.1238 28.9965 21.1605C28.9832 21.1971 28.9693 21.2336 28.9548 21.2698C28.9404 21.306 28.9253 21.342 28.9097 21.3777C28.8941 21.4135 28.8779 21.4489 28.8612 21.4842C28.8444 21.5194 28.8272 21.5544 28.8093 21.589C28.7915 21.6237 28.7731 21.6581 28.7541 21.6922L32.1125 24.1417C32.1395 24.1239 32.1669 24.1066 32.1946 24.0897C32.2223 24.0729 32.2503 24.0567 32.2786 24.0409C32.3069 24.0251 32.3354 24.0098 32.3643 23.9951C32.3931 23.9803 32.4222 23.9661 32.4516 23.9525C32.4809 23.9388 32.5105 23.9257 32.5404 23.9131C32.5703 23.9005 32.6003 23.8884 32.6306 23.8769C32.6609 23.8654 32.6913 23.8545 32.722 23.8442C32.7527 23.8338 32.7836 23.824 32.8146 23.8147C32.8457 23.8055 32.8769 23.7968 32.9082 23.7887C32.9396 23.7806 32.9711 23.7731 33.0027 23.7661C33.0344 23.7591 33.0661 23.7528 33.098 23.747C33.1298 23.7412 33.1618 23.736 33.1939 23.7314C33.2259 23.7268 33.2581 23.7227 33.2903 23.7193C33.3225 23.7158 33.3547 23.713 33.3871 23.7107C33.4194 23.7084 33.4517 23.7067 33.4841 23.7057C33.5165 23.7046 33.5488 23.7041 33.5812 23.7042C34.9932 23.7042 36.1385 24.7802 36.1385 26.1073C36.1385 27.4344 34.9932 28.5099 33.5812 28.5099C32.1698 28.5099 31.0239 27.4344 31.0239 26.1073C31.0239 25.8083 31.0833 25.5219 31.1896 25.2573L27.8312 22.8089C27.7954 22.8387 27.7591 22.868 27.7223 22.8967C27.6855 22.9253 27.6482 22.9534 27.6105 22.9808C27.5728 23.0082 27.5346 23.035 27.496 23.0612C27.4574 23.0874 27.4184 23.1129 27.3789 23.1378C27.3395 23.1627 27.2996 23.1869 27.2594 23.2105C27.2192 23.2341 27.1785 23.257 27.1375 23.2792C27.0965 23.3014 27.0552 23.323 27.0135 23.3439C26.9717 23.3647 26.9297 23.3849 26.8873 23.4044C26.845 23.4239 26.8023 23.4427 26.7593 23.4608C26.7163 23.4789 26.673 23.4962 26.6294 23.5129C26.5859 23.5295 26.542 23.5454 26.4979 23.5606C26.4538 23.5758 26.4095 23.5903 26.3649 23.6041C26.3204 23.6178 26.2756 23.6308 26.2306 23.6431C26.1856 23.6554 26.1404 23.6669 26.095 23.6777C26.0496 23.6885 26.0041 23.6985 25.9584 23.7078C25.9127 23.7171 25.8668 23.7256 25.8208 23.7333L25.8208 27.4755C27.3141 27.7964 28.4281 29.0516 28.4281 30.5521C28.4281 32.2948 26.924 33.7083 25.0687 33.7083C23.2141 33.7083 21.7104 32.2948 21.7104 30.5521C21.7104 29.0521 22.8239 27.7969 24.3172 27.4755L24.3172 23.7333C24.2712 23.7256 24.2253 23.717 24.1796 23.7078C24.1339 23.6985 24.0884 23.6884 24.043 23.6777C23.9976 23.6669 23.9524 23.6554 23.9074 23.6431C23.8624 23.6308 23.8176 23.6178 23.7731 23.6041C23.7285 23.5903 23.6841 23.5759 23.6401 23.5607C23.596 23.5455 23.5521 23.5295 23.5086 23.5129C23.465 23.4962 23.4217 23.4789 23.3787 23.4608C23.3357 23.4427 23.293 23.4239 23.2507 23.4044C23.2083 23.3849 23.1662 23.3647 23.1245 23.3439C23.0828 23.323 23.0414 23.3015 23.0005 23.2792C22.9594 23.257 22.9188 23.2341 22.8786 23.2105C22.8383 23.1869 22.7985 23.1627 22.7591 23.1378C22.7196 23.1129 22.6806 23.0874 22.642 23.0612C22.6034 23.035 22.5652 23.0082 22.5275 22.9808C22.4898 22.9533 22.4525 22.9253 22.4157 22.8966C22.3789 22.868 22.3426 22.8387 22.3068 22.8088L18.9484 25.2573C19.0547 25.5219 19.1135 25.8083 19.1135 26.1073C19.1135 27.4344 17.9687 28.5099 16.5568 28.5099C15.1453 28.5099 14 27.4344 14 26.1073C14 24.7802 15.1448 23.7047 16.5568 23.7047C17.1036 23.7047 17.6099 23.8662 18.0255 24.1417L21.3839 21.6922C21.3649 21.6581 21.3466 21.6237 21.3287 21.589C21.3109 21.5543 21.2936 21.5194 21.2768 21.4842C21.2601 21.4489 21.2439 21.4134 21.2283 21.3777C21.2127 21.342 21.1977 21.306 21.1832 21.2698C21.1687 21.2336 21.1549 21.1971 21.1415 21.1605C21.1282 21.1238 21.1155 21.087 21.1033 21.0499C21.0912 21.0128 21.0796 20.9756 21.0686 20.9382C21.0577 20.9008 21.0473 20.8632 21.0375 20.8254C21.0277 20.7876 21.0185 20.7498 21.01 20.7117C21.0014 20.6737 20.9934 20.6355 20.986 20.5972C20.9786 20.5589 20.9719 20.5205 20.9657 20.482C20.9595 20.4435 20.954 20.4049 20.949 20.3662C20.9441 20.3275 20.9398 20.2887 20.9361 20.2499C20.9323 20.2111 20.9292 20.1722 20.9268 20.1333C20.9243 20.0944 20.9224 20.0554 20.9212 20.0165C20.9199 19.9775 20.9193 19.9385 20.9193 19.8995C20.9193 17.7458 22.7776 16 25.0693 16Z"
              fill="#2C2C2C">
        </path>
    </g>
    <defs>
        <clipPath id="clip-path-0_1">
            <path d="M0 50L50 50L50 0L0 0L0 50Z" fill="white"/>
        </clipPath>
    </defs>
</svg>
